<svg width="184" height="65" viewBox="0 0 184 65" fill="none" xmlns="http://www.w3.org/2000/svg">
<path d="M13.56 22L1.05 0.399999H5.67L15.33 17.2L25.02 0.399999H29.61L17.1 22H13.56ZM34.7879 22C34.0279 22 33.3279 21.81 32.6879 21.43C32.0679 21.05 31.5679 20.55 31.1879 19.93C30.8279 19.31 30.6479 18.62 30.6479 17.86V11.32H44.3879V8.89C44.3879 8.79 44.3479 8.71 44.2679 8.65C44.2079 8.57 44.1279 8.53 44.0279 8.53H30.6479V4.6H44.1779C44.9379 4.6 45.6279 4.79 46.2479 5.17C46.8879 5.55 47.3879 6.05 47.7479 6.67C48.1279 7.29 48.3179 7.98 48.3179 8.74V22H34.7879ZM34.9379 18.07H44.3879V14.86H34.5779V17.71C34.5779 17.81 34.6079 17.9 34.6679 17.98C34.7479 18.04 34.8379 18.07 34.9379 18.07ZM53.7677 22C53.0077 22 52.3177 21.81 51.6977 21.43C51.0777 21.05 50.5777 20.55 50.1977 19.93C49.8177 19.31 49.6277 18.62 49.6277 17.86V8.74C49.6277 7.98 49.8177 7.29 50.1977 6.67C50.5777 6.05 51.0777 5.55 51.6977 5.17C52.3177 4.79 53.0077 4.6 53.7677 4.6H67.2677V8.53H53.9177C53.8177 8.53 53.7277 8.57 53.6477 8.65C53.5877 8.71 53.5577 8.79 53.5577 8.89V17.71C53.5577 17.81 53.5877 17.9 53.6477 17.98C53.7277 18.04 53.8177 18.07 53.9177 18.07H67.2977V22H53.7677ZM72.9546 22C72.1946 22 71.4946 21.81 70.8546 21.43C70.2346 21.05 69.7346 20.55 69.3546 19.93C68.9946 19.31 68.8146 18.62 68.8146 17.86V4.6H72.7446V17.71C72.7446 17.81 72.7746 17.9 72.8346 17.98C72.9146 18.04 73.0046 18.07 73.1046 18.07H82.1946C82.2946 18.07 82.3746 18.04 82.4346 17.98C82.5146 17.9 82.5546 17.81 82.5546 17.71V4.6H86.4846V17.86C86.4846 18.62 86.2946 19.31 85.9146 19.93C85.5546 20.55 85.0646 21.05 84.4446 21.43C83.8246 21.81 83.1246 22 82.3446 22H72.9546ZM92.814 22C92.054 22 91.354 21.81 90.714 21.43C90.094 21.05 89.594 20.55 89.214 19.93C88.854 19.31 88.674 18.62 88.674 17.86V4.6H92.604V17.71C92.604 17.81 92.634 17.9 92.694 17.98C92.774 18.04 92.864 18.07 92.964 18.07H102.054C102.154 18.07 102.234 18.04 102.294 17.98C102.374 17.9 102.414 17.81 102.414 17.71V4.6H106.344V17.86C106.344 18.62 106.154 19.31 105.774 19.93C105.414 20.55 104.924 21.05 104.304 21.43C103.684 21.81 102.984 22 102.204 22H92.814ZM107.831 22V4.6H129.401C130.181 4.6 130.881 4.79 131.501 5.17C132.121 5.55 132.611 6.05 132.971 6.67C133.351 7.29 133.541 7.98 133.541 8.74V22H129.641V8.89C129.641 8.79 129.601 8.71 129.521 8.65C129.441 8.57 129.351 8.53 129.251 8.53H123.041C122.941 8.53 122.851 8.57 122.771 8.65C122.711 8.71 122.681 8.79 122.681 8.89V22H118.721V8.89C118.721 8.79 118.681 8.71 118.601 8.65C118.541 8.57 118.461 8.53 118.361 8.53H112.121C112.021 8.53 111.931 8.57 111.851 8.65C111.791 8.71 111.761 8.79 111.761 8.89V22H107.831ZM9.42 58V40.39H0.6V36.4H22.2V40.39H13.41V58H9.42ZM27.4337 58C26.6737 58 25.9837 57.81 25.3637 57.43C24.7437 57.05 24.2437 56.55 23.8637 55.93C23.4837 55.31 23.2937 54.62 23.2937 53.86V44.74C23.2937 43.98 23.4837 43.29 23.8637 42.67C24.2437 42.05 24.7437 41.55 25.3637 41.17C25.9837 40.79 26.6737 40.6 27.4337 40.6H36.8237C37.5837 40.6 38.2737 40.79 38.8937 41.17C39.5337 41.55 40.0337 42.05 40.3937 42.67C40.7737 43.29 40.9637 43.98 40.9637 44.74V51.28H27.2237V53.71C27.2237 53.81 27.2537 53.9 27.3137 53.98C27.3937 54.04 27.4837 54.07 27.5837 54.07H40.9637V58H27.4337ZM27.2237 47.74H37.0337V44.89C37.0337 44.79 36.9937 44.71 36.9137 44.65C36.8537 44.57 36.7737 44.53 36.6737 44.53H27.5837C27.4837 44.53 27.3937 44.57 27.3137 44.65C27.2537 44.71 27.2237 44.79 27.2237 44.89V47.74ZM46.502 58C45.742 58 45.052 57.81 44.432 57.43C43.812 57.05 43.312 56.55 42.932 55.93C42.552 55.31 42.362 54.62 42.362 53.86V44.74C42.362 43.98 42.552 43.29 42.932 42.67C43.312 42.05 43.812 41.55 44.432 41.17C45.052 40.79 45.742 40.6 46.502 40.6H60.002V44.53H46.652C46.552 44.53 46.462 44.57 46.382 44.65C46.322 44.71 46.292 44.79 46.292 44.89V53.71C46.292 53.81 46.322 53.9 46.382 53.98C46.462 54.04 46.552 54.07 46.652 54.07H60.032V58H46.502ZM61.579 58V34.9H65.509V40.6H75.109C75.869 40.6 76.559 40.79 77.179 41.17C77.799 41.55 78.299 42.05 78.679 42.67C79.059 43.29 79.249 43.98 79.249 44.74V58H75.319V44.89C75.319 44.79 75.279 44.71 75.199 44.65C75.139 44.57 75.059 44.53 74.959 44.53H65.869C65.769 44.53 65.679 44.57 65.599 44.65C65.539 44.71 65.509 44.79 65.509 44.89V58H61.579ZM80.618 58V40.6H94.148C94.908 40.6 95.598 40.79 96.218 41.17C96.858 41.55 97.358 42.05 97.718 42.67C98.098 43.29 98.288 43.98 98.288 44.74V58H94.358V44.89C94.358 44.79 94.318 44.71 94.238 44.65C94.178 44.57 94.098 44.53 93.998 44.53H84.908C84.808 44.53 84.718 44.57 84.638 44.65C84.578 44.71 84.548 44.79 84.548 44.89V58H80.618ZM103.912 58C103.152 58 102.462 57.81 101.842 57.43C101.222 57.05 100.722 56.55 100.342 55.93C99.9622 55.31 99.7722 54.62 99.7722 53.86V44.74C99.7722 43.98 99.9622 43.29 100.342 42.67C100.722 42.05 101.222 41.55 101.842 41.17C102.462 40.79 103.152 40.6 103.912 40.6H113.302C114.062 40.6 114.752 40.79 115.372 41.17C116.012 41.55 116.512 42.05 116.872 42.67C117.252 43.29 117.442 43.98 117.442 44.74V53.86C117.442 54.62 117.252 55.31 116.872 55.93C116.512 56.55 116.022 57.05 115.402 57.43C114.782 57.81 114.082 58 113.302 58H103.912ZM104.062 54.07H113.152C113.252 54.07 113.332 54.04 113.392 53.98C113.472 53.9 113.512 53.81 113.512 53.71V44.89C113.512 44.79 113.472 44.71 113.392 44.65C113.332 44.57 113.252 44.53 113.152 44.53H104.062C103.962 44.53 103.872 44.57 103.792 44.65C103.732 44.71 103.702 44.79 103.702 44.89V53.71C103.702 53.81 103.732 53.9 103.792 53.98C103.872 54.04 103.962 54.07 104.062 54.07ZM122.981 58C122.221 58 121.531 57.81 120.911 57.43C120.291 57.05 119.791 56.55 119.411 55.93C119.031 55.31 118.841 54.62 118.841 53.86V34.87H122.801V53.71C122.801 53.81 122.831 53.9 122.891 53.98C122.971 54.04 123.061 54.07 123.161 54.07H126.491V58H122.981ZM131.854 58C131.094 58 130.404 57.81 129.784 57.43C129.164 57.05 128.664 56.55 128.284 55.93C127.904 55.31 127.714 54.62 127.714 53.86V44.74C127.714 43.98 127.904 43.29 128.284 42.67C128.664 42.05 129.164 41.55 129.784 41.17C130.404 40.79 131.094 40.6 131.854 40.6H141.244C142.004 40.6 142.694 40.79 143.314 41.17C143.954 41.55 144.454 42.05 144.814 42.67C145.194 43.29 145.384 43.98 145.384 44.74V53.86C145.384 54.62 145.194 55.31 144.814 55.93C144.454 56.55 143.964 57.05 143.344 57.43C142.724 57.81 142.024 58 141.244 58H131.854ZM132.004 54.07H141.094C141.194 54.07 141.274 54.04 141.334 53.98C141.414 53.9 141.454 53.81 141.454 53.71V44.89C141.454 44.79 141.414 44.71 141.334 44.65C141.274 44.57 141.194 44.53 141.094 44.53H132.004C131.904 44.53 131.814 44.57 131.734 44.65C131.674 44.71 131.644 44.79 131.644 44.89V53.71C131.644 53.81 131.674 53.9 131.734 53.98C131.814 54.04 131.904 54.07 132.004 54.07ZM150.095 64.87V60.91H160.565C160.665 60.91 160.745 60.87 160.805 60.79C160.885 60.73 160.925 60.65 160.925 60.55V58H151.325C150.585 58 149.895 57.81 149.255 57.43C148.635 57.05 148.135 56.55 147.755 55.93C147.375 55.31 147.185 54.62 147.185 53.86V44.74C147.185 43.98 147.375 43.29 147.755 42.67C148.135 42.05 148.635 41.55 149.255 41.17C149.895 40.79 150.585 40.6 151.325 40.6H160.745C161.505 40.6 162.195 40.79 162.815 41.17C163.435 41.55 163.925 42.05 164.285 42.67C164.665 43.29 164.855 43.98 164.855 44.74V60.73C164.855 61.51 164.675 62.21 164.315 62.83C163.955 63.45 163.455 63.94 162.815 64.3C162.195 64.68 161.505 64.87 160.745 64.87H150.095ZM151.475 54.07H160.565C160.665 54.07 160.745 54.04 160.805 53.98C160.885 53.9 160.925 53.81 160.925 53.71V44.89C160.925 44.79 160.885 44.71 160.805 44.65C160.745 44.57 160.665 44.53 160.565 44.53H151.475C151.375 44.53 151.285 44.57 151.205 44.65C151.145 44.71 151.115 44.79 151.115 44.89V53.71C151.115 53.81 151.145 53.9 151.205 53.98C151.285 54.04 151.375 54.07 151.475 54.07ZM169.193 64.45V60.49H179.663C179.763 60.49 179.843 60.45 179.903 60.37C179.983 60.31 180.023 60.23 180.023 60.13V58H170.423C169.683 58 168.993 57.81 168.353 57.43C167.733 57.05 167.233 56.55 166.853 55.93C166.473 55.31 166.283 54.62 166.283 53.86V40.66H170.213V53.71C170.213 53.81 170.243 53.9 170.303 53.98C170.383 54.04 170.473 54.07 170.573 54.07H179.663C179.763 54.07 179.843 54.04 179.903 53.98C179.983 53.9 180.023 53.81 180.023 53.71V40.66H183.953V60.31C183.953 61.07 183.773 61.76 183.413 62.38C183.053 63.02 182.553 63.52 181.913 63.88C181.293 64.26 180.603 64.45 179.843 64.45H169.193Z" fill="white"/>
</svg>
